<mxfile host="app.diagrams.net" modified="2023-03-28T06:37:14.336Z" agent="Mozilla/5.0 (Windows NT 10.0; Win64; x64) AppleWebKit/537.36 (KHTML, like Gecko) Chrome/103.0.0.0 Safari/537.36" version="21.1.1" etag="HW8NVnx1LQNLSHvqRuB2" type="github">
  <diagram name="第 1 页" id="Rm76TuTMdBAt14YYYc0e">
    <mxGraphModel>
      <root>
        <mxCell id="0" />
        <mxCell id="1" parent="0" />
      </root>
    </mxGraphModel>
  </diagram>
</mxfile>
